<?xml version="1.0" encoding="UTF-8" standalone="no"?>
<!-- Created with Inkscape (http://www.inkscape.org/) -->

<svg
   width="255mm"
   height="100mm"
   viewBox="0 0 255 100"
   version="1.1"
   id="svg1"
   xml:space="preserve"
   inkscape:version="1.4.4 (dcaf3e7d9e, 2026-05-05)"
   sodipodi:docname="logo.svg"
   xmlns:inkscape="http://www.inkscape.org/namespaces/inkscape"
   xmlns:sodipodi="http://sodipodi.sourceforge.net/DTD/sodipodi-0.dtd"
   xmlns="http://www.w3.org/2000/svg"
   xmlns:svg="http://www.w3.org/2000/svg"><sodipodi:namedview
     id="namedview1"
     pagecolor="#ffffff"
     bordercolor="#000000"
     borderopacity="0.25"
     inkscape:showpageshadow="2"
     inkscape:pageopacity="0.0"
     inkscape:pagecheckerboard="0"
     inkscape:deskcolor="#d1d1d1"
     inkscape:document-units="mm"
     inkscape:zoom="1.4142136"
     inkscape:cx="386.0803"
     inkscape:cy="328.4511"
     inkscape:window-width="2560"
     inkscape:window-height="1366"
     inkscape:window-x="0"
     inkscape:window-y="0"
     inkscape:window-maximized="1"
     inkscape:current-layer="layer3"
     showgrid="false" /><defs
     id="defs1" /><g
     inkscape:groupmode="layer"
     id="layer3"
     inkscape:label="Background"
     style="display:inline;opacity:1;fill:#000000"><rect
       style="display:inline;opacity:1;fill:#000000;fill-opacity:1;stroke:none;stroke-width:0;stroke-linejoin:bevel;stroke-dasharray:none"
       id="rect15"
       width="255"
       height="100"
       x="0"
       y="0" /></g><g
     inkscape:groupmode="layer"
     id="layer2"
     inkscape:label="Layer 2"
     style="display:inline;opacity:1"><path
       style="fill:#ffffff;fill-opacity:1;stroke:#ffffff;stroke-width:0.4;stroke-linejoin:round;stroke-dasharray:none;stroke-opacity:1"
       d="m 31.680012,65.454431 h 5.390666 l -7.412165,20.503768 h 16.781656 l -1.66854,4.524307 h -22.07606 z"
       id="path11" /><path
       style="fill:#ffffff;fill-opacity:1;stroke:#ffffff;stroke-width:0.4;stroke-linejoin:round;stroke-opacity:1"
       d="m 54.622427,72.128588 -6.577894,18.353918 h 5.069792 l 6.642069,-18.514358 z"
       id="path1" /><path
       style="fill:#ffffff;fill-opacity:1;stroke:#ffffff;stroke-width:0.4;stroke-linejoin:round;stroke-opacity:1"
       d="m 55.264173,69.722038 h 5.422752 l 1.604365,-4.331777 h -5.358577 z"
       id="path2" /><path
       id="path4"
       style="fill:#ffffff;fill-opacity:1;stroke:#ffffff;stroke-width:0.4;stroke-linejoin:round;stroke-opacity:1"
       d="m 71.751693,65.491071 -5.172811,0.0455 -7.431071,20.929978 c -0.703331,2.20117 0.416795,3.843647 2.314071,3.902597 l 15.554089,0.0801 c 1.92686,0.016 4.140449,-1.786447 4.642086,-3.307807 l 3.843694,-10.759024 c 0.94782,-3.546357 -1.34067,-4.313317 -2.36006,-4.311357 l -13.912325,0.016 z m -3.443718,10.776594 11.438579,0.032 c 0.441223,-0.0133 0.674834,0.15457 0.465604,0.70642 l -3.080432,8.406714 c -0.170558,0.39412 -0.313414,0.81315 -0.898653,0.83406 H 64.874076 c -0.374474,-0.0136 -0.549318,-0.2122 -0.33693,-0.76998 l 3.096452,-8.631514 c 0.181559,-0.45457 0.241582,-0.58964 0.674377,-0.57774 z" /><path
       style="fill:#ffffff;fill-opacity:1;stroke:#ffffff;stroke-width:0.4;stroke-linejoin:round;stroke-opacity:1"
       d="m 89.948628,90.449416 h -5.263877 l 5.127747,-14.339531 c 0.69338,-1.9317 3.794317,-4.160767 5.400017,-4.129427 h 10.981555 l -1.31597,4.265557 h -8.258865 c -1.27208,-0.035 -1.68168,0.19851 -2.0874,1.31597 z"
       id="path5"
       sodipodi:nodetypes="ccccccccc" /><path
       id="path6"
       style="fill:#ffffff;fill-opacity:1;stroke:#ffffff;stroke-width:0.4;stroke-linejoin:round;stroke-opacity:1"
       d="m 113.18224,71.935118 c -1.99861,0.0204 -4.43004,1.946147 -5.35471,4.174937 l -3.99304,10.890794 c -0.40878,1.47159 0.91815,3.462767 3.04012,3.448367 h 17.51625 l 1.63349,-4.129457 h -15.74633 c -0.53436,-0.0115 -0.88046,-0.39825 -0.72605,-0.77101 l 0.817,-2.223637 h 16.51734 l 2.76831,-7.623817 c 0.65128,-2.13242 -0.90688,-3.776777 -2.35955,-3.766177 z m 0.26096,4.140827 h 10.13065 c 0.53166,-5.8e-4 0.87219,0.14794 0.70332,0.66921 l -0.98702,2.609137 h -11.40086 l 1.02061,-2.790517 c 0.0904,-0.32457 0.32642,-0.48827 0.5333,-0.48783 z" /><path
       style="fill:#fe6b0b;fill-opacity:1;stroke:#fe6b0b;stroke-width:0.4;stroke-linejoin:round;stroke-opacity:1"
       d="m 135.64458,90.358656 h -5.17313 l 8.89415,-24.958045 4.71934,0.0454 4.94623,15.564741 16.24543,-15.610121 h 4.8101 l -8.93952,25.003425 h -5.03699 l 5.58152,-15.791631 -13.61348,13.205074 h -2.0874 l -4.62859,-13.794994 z"
       id="path7" /><path
       id="path8"
       style="fill:#fe6b0b;fill-opacity:1;stroke:#fe6b0b;stroke-width:0.4;stroke-linejoin:round;stroke-opacity:1"
       d="m 175.5774,71.980588 c -1.80684,-0.0136 -4.31814,1.913147 -5.03691,3.630267 l -3.85712,11.525904 c -0.50646,1.69896 1.11729,3.232627 2.5864,3.222027 h 14.83889 c 2.39137,-0.0499 4.37863,-1.780687 4.99143,-3.357937 l 3.9026,-11.027224 c 0.81623,-2.808247 -1.44342,-4.016137 -3.72122,-3.993037 z m 0.9126,4.351667 h 10.34821 c 0.56761,-0.005 0.60779,0.59108 0.48111,1.01028 l -2.9037,8.006224 c -0.27007,0.77358 -0.8609,0.81492 -1.45986,0.80202 h -9.99526 c -0.61249,7.5e-4 -0.67678,-0.50671 -0.5457,-0.97875 l 2.85564,-8.149884 c 0.20326,-0.62258 0.82811,-0.69989 1.21956,-0.68989 z" /><path
       id="path8-3"
       style="display:inline;opacity:1;fill:#fe6b0b;fill-opacity:1;stroke:#fe6b0b;stroke-width:0.4;stroke-linejoin:round;stroke-opacity:1"
       d="m 218.36146,72.166958 c -1.80684,-0.0136 -4.31814,1.913147 -5.03691,3.630267 l -3.85712,11.525904 c -0.50646,1.69896 1.11729,3.232627 2.5864,3.222027 h 14.83889 c 2.39137,-0.0499 4.37863,-1.780687 4.99143,-3.357937 l 3.9026,-11.027224 c 0.81623,-2.808247 -1.44342,-4.016137 -3.72122,-3.993037 z m 0.9126,4.351667 h 10.34821 c 0.56761,-0.005 0.60779,0.59108 0.48111,1.01028 l -2.9037,8.006224 c -0.27007,0.77358 -0.8609,0.81492 -1.45986,0.80202 h -9.99526 c -0.61249,7.5e-4 -0.67678,-0.50671 -0.5457,-0.97875 l 2.85564,-8.149884 c 0.20326,-0.62258 0.82811,-0.69989 1.21956,-0.68989 z" /><path
       style="display:inline;fill:#fe6b0b;fill-opacity:1;stroke:#fe6b0b;stroke-width:0.4;stroke-linejoin:round;stroke-opacity:1"
       d="m 205.66327,90.404036 h -8.62187 c -1.82571,0.0528 -3.39417,-1.316377 -2.26891,-4.810097 l 3.35799,-9.393304 h -2.94959 l 1.49748,-4.310927 h 2.76808 l 1.81513,-4.946237 h 5.17313 l -1.679,4.900857 h 6.94288 l -1.49749,4.310937 h -6.94288 l -3.04034,8.667244 c -0.32061,0.84136 -0.27558,1.47168 0.36303,1.4521 h 6.6706 z"
       id="path9"
       sodipodi:nodetypes="ccccccccccccccccc" /><path
       style="opacity:1;fill:#fe6b0b;fill-opacity:1;stroke:#fe6b0b;stroke-width:0.1;stroke-linejoin:bevel;stroke-dasharray:none;stroke-opacity:1"
       d="m 239.28858,89.723356 c 6.44158,-18.373268 -7.77534,-44.914597 -38.16313,-35.077389 11.32262,-5.772117 21.80135,-5.901047 32.5816,3.403367 7.16657,7.682167 11.97492,16.845331 5.58153,31.674022 z"
       id="path10"
       sodipodi:nodetypes="cccc" /><path
       style="opacity:1;fill:#ffffff;fill-opacity:1;stroke:#ffffff;stroke-width:0.1;stroke-linejoin:bevel;stroke-dasharray:none;stroke-opacity:1"
       d="m 244.41633,93.262866 c 5.24485,-16.743751 1.53727,-26.905935 -3.63026,-34.215212 -5.65635,-5.804267 -14.4851,-16.138186 -35.44044,-11.752964 3.73045,-2.339378 7.73169,-4.204868 11.02692,-7.305896 1.88974,-1.705723 1.235,-4.496788 -0.18151,-6.579852 -6.09518,-8.998934 -18.13619,-18.505172 -29.45051,-23.8689767 2.2177,2.7636667 4.68194,5.2345527 5.03699,10.2101137 0.77749,9.518827 -20.19694,15.490215 -22.18999,15.768953 6.57911,-3.253555 11.20841,-6.144354 15.20173,-8.916832 -9.07592,-4.022101 -23.74301,-9.118806 -36.80179,-8.304228 -7.43692,1.111954 -11.05868,3.598148 -13.43197,5.468086 -5.1066,3.978339 -9.67297,8.65126 -14.38492,13.137011 -4.62845,4.193868 -5.0523,6.558208 -11.29919,5.672286 -8.42657,-0.572164 -16.574322,-1.701902 -24.640419,-2.994967 l -3.72101,-4.76472 c 7.796267,1.424907 16.426064,2.315773 24.640409,2.813455 5.18102,0.416961 8.69157,0.0506 11.84373,-3.040345 l 14.06727,-14.430296 c 4.42613,-4.469464 10.4456,-6.947258 18.74123,-6.579851 19.90538,1.068465 29.17233,7.750627 36.21188,11.798355 7.00246,-7.272929 0.95795,-12.519809 -7.39666,-20.1479597 6.69374,0.291159 15.47602,3.302281 28.04378,12.9328117 5.6751,4.694991 10.40442,7.985661 13.97651,15.564752 1.90747,2.709772 2.39941,4.806145 0.68067,5.944556 l -5.17312,3.811775 c 11.50008,0.566721 18.65233,5.111229 24.50427,10.845396 14.10764,15.932661 8.41011,30.857212 3.7664,38.934549 z"
       id="path12"
       sodipodi:nodetypes="ccccccccccccccccccccccccccc" /><path
       style="opacity:1;fill:#fe6b0b;fill-opacity:1;stroke:#fe6b0b;stroke-width:0.1;stroke-linejoin:bevel;stroke-opacity:1"
       d="m 180.02454,53.239237 30.0858,-15.973141 c 0.60017,-0.40293 0.65899,-0.777136 -0.13613,-0.998323 l -11.7076,-3.494127 c 4.0036,-0.08801 8.25369,0.617866 13.25046,1.633619 3.81645,0.88681 5.19038,2.771405 1.36135,5.263881 -10.99819,5.869723 -23.02192,10.210104 -32.85388,13.568091 z"
       id="path3"
       sodipodi:nodetypes="ccccccc" /><path
       style="display:inline;opacity:1;fill:#ffffff;fill-opacity:1;stroke:#ffffff;stroke-width:0.1;stroke-linejoin:bevel;stroke-opacity:1"
       d="M 9.9013442,93.217486 C 5.1696255,82.883352 4.5029325,62.285314 21.654322,51.56024 42.417976,38.726984 60.523926,49.29133 68.257824,57.232527 65.378602,49.4382 43.22597,33.624827 19.521543,48.9283 0.25803171,60.413824 2.5644806,84.078922 9.9013442,93.217486 Z"
       id="path13"
       sodipodi:nodetypes="ccccc" /><path
       style="opacity:1;fill:#fe6b0b;fill-opacity:1;stroke:#fe6b0b;stroke-width:0.1;stroke-linejoin:bevel;stroke-opacity:1"
       d="M 14.711444,90.267896 C 12.695448,81.299562 11.506459,70.425238 21.726283,60.121164 29.809353,53.237087 40.305625,48.80501 54.28131,53.783777 47.16994,49.6011 31.685989,47.35442 20.066082,58.775384 8.5482062,70.668548 10.951562,83.549642 14.711444,90.267896 Z"
       id="path14"
       sodipodi:nodetypes="ccccc" /><path
       style="opacity:1;fill:#fe6b0b;fill-opacity:1;stroke:#fe6b0b;stroke-width:0.1;stroke-linejoin:bevel;stroke-opacity:1"
       d="M 69.846062,41.168629 22.970294,23.334961 72.478005,27.237494 c 1.943572,0.190989 3.035905,0.889409 4.038666,2.314294 l 7.71997,10.028601 C 81.610897,39.304662 78.908212,36.197983 76.244401,34.361887 74.99619,33.508652 73.95995,32.869197 72.659517,32.63751 L 39.442612,27.010603 Z"
       id="path15"
       sodipodi:nodetypes="ccccccccc" /></g></svg>
